<svg width="173" height="39" viewBox="0 0 173 39" fill="none" xmlns="http://www.w3.org/2000/svg">
<path d="M28.2886 0.867512L37.958 10.3809H18.6193L28.2886 0.867512Z" fill="#FFC800"/>
<path d="M38.8897 12.5394L39 26.1036L25.3255 12.4291L38.8897 12.5394Z" fill="#FFC800"/>
<path d="M38.1325 28.2888L28.6192 37.9581V18.6194L38.1325 28.2888Z" fill="#FFC800"/>
<path d="M26.4606 38.8898L12.8964 39.0001L26.5709 25.3256L26.4606 38.8898Z" fill="#FFC800"/>
<path d="M10.7113 38.1326L1.04197 28.6192H20.3806L10.7113 38.1326Z" fill="#FFC800"/>
<path d="M0.110278 26.4607L0 12.8965L13.6745 26.571L0.110278 26.4607Z" fill="#FFC800"/>
<path d="M0.867447 10.7113L10.3808 1.04203V20.3807L0.867447 10.7113Z" fill="#FFC800"/>
<path d="M12.5394 0.110278L26.1036 0L12.4291 13.6745L12.5394 0.110278Z" fill="#FFC800"/>
<path d="M45.7462 28V10.2956H48.9534V25.3115H56.751V28H45.7462ZM58.9094 28V14.7217H62.0388V28H58.9094ZM60.4828 12.8371C59.9871 12.8371 59.5607 12.6729 59.2034 12.3444C58.846 12.0101 58.6674 11.6096 58.6674 11.1428C58.6674 10.6702 58.846 10.2696 59.2034 9.94114C59.5607 9.60688 59.9871 9.43975 60.4828 9.43975C60.9842 9.43975 61.4106 9.60688 61.7622 9.94114C62.1195 10.2696 62.2982 10.6702 62.2982 11.1428C62.2982 11.6096 62.1195 12.0101 61.7622 12.3444C61.4106 12.6729 60.9842 12.8371 60.4828 12.8371ZM67.8994 20.2198V28H64.77V14.7217H67.7611V16.978H67.9167C68.2221 16.2345 68.7091 15.6438 69.3776 15.2058C70.0519 14.7678 70.8847 14.5488 71.876 14.5488C72.7923 14.5488 73.5905 14.7447 74.2705 15.1366C74.9564 15.5285 75.4866 16.0962 75.8612 16.8397C76.2416 17.5831 76.4289 18.485 76.4231 19.5455V28H73.2937V20.0296C73.2937 19.142 73.0632 18.4476 72.6021 17.9462C72.1468 17.4448 71.5158 17.1941 70.7089 17.1941C70.1614 17.1941 69.6744 17.3151 69.2479 17.5572C68.8272 17.7935 68.4959 18.1364 68.2538 18.5859C68.0175 19.0354 67.8994 19.58 67.8994 20.2198ZM84.8922 33.256C83.7684 33.256 82.803 33.1033 81.9962 32.7979C81.1893 32.4982 80.541 32.0948 80.0511 31.5876C79.5613 31.0804 79.2212 30.5185 79.031 29.9019L81.8492 29.2189C81.976 29.4783 82.1604 29.7347 82.4025 29.9883C82.6445 30.2477 82.9702 30.4609 83.3794 30.628C83.7943 30.8009 84.3159 30.8874 84.9441 30.8874C85.8316 30.8874 86.5664 30.6713 87.1485 30.239C87.7305 29.8125 88.0216 29.1094 88.0216 28.1297V25.6141H87.866C87.7046 25.9368 87.4683 26.2682 87.1571 26.6082C86.8517 26.9483 86.4454 27.2335 85.9382 27.4641C85.4368 27.6946 84.8057 27.8098 84.045 27.8098C83.0249 27.8098 82.0999 27.5707 81.27 27.0923C80.4459 26.6082 79.7889 25.8878 79.299 24.9311C78.8149 23.9687 78.5729 22.7642 78.5729 21.3176C78.5729 19.8596 78.8149 18.6291 79.299 17.6263C79.7889 16.6178 80.4488 15.8542 81.2787 15.3355C82.1086 14.811 83.0336 14.5488 84.0536 14.5488C84.8317 14.5488 85.4714 14.6813 85.9728 14.9465C86.4799 15.2058 86.8834 15.5199 87.183 15.8887C87.4827 16.2518 87.7104 16.5947 87.866 16.9175H88.0389V14.7217H91.125V28.2161C91.125 29.3515 90.8542 30.2909 90.3124 31.0343C89.7707 31.7778 89.0301 32.3339 88.0907 32.7028C87.1513 33.0716 86.0852 33.256 84.8922 33.256ZM84.9181 25.3547C85.5809 25.3547 86.1457 25.1934 86.6125 24.8706C87.0793 24.5479 87.4337 24.084 87.6758 23.4788C87.9178 22.8737 88.0389 22.1475 88.0389 21.3003C88.0389 20.4647 87.9178 19.7328 87.6758 19.1046C87.4395 18.4764 87.0879 17.9894 86.6211 17.6436C86.1601 17.2921 85.5924 17.1163 84.9181 17.1163C84.2208 17.1163 83.6387 17.2978 83.1719 17.6609C82.7051 18.024 82.3535 18.5225 82.1172 19.1564C81.8809 19.7846 81.7628 20.4993 81.7628 21.3003C81.7628 22.113 81.8809 22.8247 82.1172 23.4356C82.3593 24.0407 82.7137 24.5133 83.1805 24.8533C83.6531 25.1876 84.2323 25.3547 84.9181 25.3547ZM99.6374 28.2594C98.3406 28.2594 97.2168 27.9741 96.2659 27.4035C95.315 26.833 94.5773 26.0348 94.0529 25.0089C93.5342 23.9831 93.2748 22.7844 93.2748 21.4127C93.2748 20.0411 93.5342 18.8395 94.0529 17.8079C94.5773 16.7763 95.315 15.9752 96.2659 15.4046C97.2168 14.8341 98.3406 14.5488 99.6374 14.5488C100.934 14.5488 102.058 14.8341 103.009 15.4046C103.96 15.9752 104.695 16.7763 105.213 17.8079C105.738 18.8395 106 20.0411 106 21.4127C106 22.7844 105.738 23.9831 105.213 25.0089C104.695 26.0348 103.96 26.833 103.009 27.4035C102.058 27.9741 100.934 28.2594 99.6374 28.2594ZM99.6547 25.7524C100.358 25.7524 100.946 25.5593 101.418 25.1732C101.891 24.7813 102.242 24.2569 102.473 23.5999C102.709 22.9429 102.827 22.2109 102.827 21.4041C102.827 20.5915 102.709 19.8567 102.473 19.1997C102.242 18.5369 101.891 18.0096 101.418 17.6177C100.946 17.2258 100.358 17.0298 99.6547 17.0298C98.9343 17.0298 98.3349 17.2258 97.8565 17.6177C97.384 18.0096 97.0295 18.5369 96.7932 19.1997C96.5627 19.8567 96.4474 20.5915 96.4474 21.4041C96.4474 22.2109 96.5627 22.9429 96.7932 23.5999C97.0295 24.2569 97.384 24.7813 97.8565 25.1732C98.3349 25.5593 98.9343 25.7524 99.6547 25.7524ZM123.462 16.2691H120.229C120.136 15.7389 119.966 15.2692 119.719 14.86C119.471 14.4451 119.162 14.0935 118.794 13.8053C118.425 13.5172 118.004 13.3011 117.531 13.157C117.065 13.0071 116.56 12.9322 116.019 12.9322C115.056 12.9322 114.203 13.1743 113.46 13.6584C112.716 14.1367 112.134 14.8398 111.713 15.7677C111.293 16.6898 111.082 17.8165 111.082 19.1478C111.082 20.5021 111.293 21.6433 111.713 22.5711C112.14 23.4932 112.722 24.1906 113.46 24.6632C114.203 25.13 115.053 25.3634 116.01 25.3634C116.54 25.3634 117.036 25.2942 117.497 25.1559C117.964 25.0118 118.381 24.8015 118.75 24.5248C119.125 24.2482 119.439 23.9082 119.693 23.5048C119.952 23.1013 120.131 22.6403 120.229 22.1216L123.462 22.1389C123.341 22.9803 123.078 23.7699 122.675 24.5076C122.277 25.2452 121.756 25.8965 121.11 26.4613C120.465 27.0203 119.71 27.4583 118.845 27.7753C117.981 28.0865 117.021 28.2421 115.967 28.2421C114.411 28.2421 113.022 27.8819 111.8 27.1615C110.578 26.4411 109.616 25.4008 108.913 24.0407C108.209 22.6806 107.858 21.0497 107.858 19.1478C107.858 17.2402 108.212 15.6092 108.921 14.2549C109.63 12.8948 110.595 11.8545 111.817 11.1341C113.039 10.4137 114.422 10.0535 115.967 10.0535C116.952 10.0535 117.869 10.1918 118.716 10.4685C119.563 10.7451 120.318 11.1514 120.981 11.6874C121.643 12.2176 122.188 12.8688 122.615 13.6411C123.047 14.4076 123.329 15.2836 123.462 16.2691ZM128.903 20.2198V28H125.774V10.2956H128.834V16.978H128.989C129.301 16.2288 129.782 15.638 130.433 15.2058C131.09 14.7678 131.926 14.5488 132.94 14.5488C133.862 14.5488 134.666 14.7419 135.352 15.128C136.038 15.5141 136.568 16.0789 136.943 16.8224C137.323 17.5658 137.513 18.4735 137.513 19.5455V28H134.384V20.0296C134.384 19.1363 134.153 18.4418 133.692 17.9462C133.237 17.4448 132.597 17.1941 131.773 17.1941C131.22 17.1941 130.724 17.3151 130.286 17.5572C129.854 17.7935 129.514 18.1364 129.266 18.5859C129.024 19.0354 128.903 19.58 128.903 20.2198ZM144.037 28.268C143.196 28.268 142.438 28.1182 141.764 27.8185C141.095 27.513 140.565 27.0635 140.173 26.4699C139.787 25.8763 139.594 25.1444 139.594 24.2741C139.594 23.5249 139.732 22.9054 140.009 22.4155C140.285 21.9257 140.663 21.5338 141.141 21.2398C141.62 20.9459 142.158 20.724 142.758 20.5742C143.363 20.4186 143.988 20.3062 144.634 20.237C145.412 20.1564 146.043 20.0843 146.527 20.0209C147.011 19.9518 147.362 19.848 147.581 19.7097C147.806 19.5656 147.919 19.3438 147.919 19.0441V18.9922C147.919 18.341 147.726 17.8367 147.339 17.4794C146.953 17.1221 146.397 16.9434 145.671 16.9434C144.905 16.9434 144.296 17.1105 143.847 17.4448C143.403 17.7791 143.104 18.1738 142.948 18.6291L140.026 18.2142C140.257 17.4073 140.637 16.733 141.167 16.1913C141.697 15.6438 142.346 15.2346 143.112 14.9637C143.879 14.6871 144.726 14.5488 145.654 14.5488C146.293 14.5488 146.93 14.6237 147.564 14.7736C148.198 14.9234 148.777 15.1712 149.302 15.517C149.826 15.857 150.247 16.321 150.564 16.9088C150.887 17.4967 151.048 18.2315 151.048 19.1132V28H148.04V26.176H147.936C147.746 26.5448 147.478 26.8906 147.132 27.2134C146.792 27.5303 146.363 27.7868 145.844 27.9827C145.331 28.1729 144.729 28.268 144.037 28.268ZM144.85 25.9685C145.478 25.9685 146.023 25.8446 146.484 25.5968C146.945 25.3432 147.299 25.0089 147.547 24.594C147.8 24.1791 147.927 23.7266 147.927 23.2368V21.6721C147.829 21.7528 147.662 21.8277 147.426 21.8968C147.195 21.966 146.936 22.0265 146.648 22.0784C146.36 22.1302 146.074 22.1763 145.792 22.2167C145.51 22.257 145.265 22.2916 145.057 22.3204C144.59 22.3838 144.173 22.4876 143.804 22.6316C143.435 22.7757 143.144 22.9774 142.931 23.2368C142.717 23.4904 142.611 23.8189 142.611 24.2223C142.611 24.7986 142.821 25.2337 143.242 25.5276C143.663 25.8216 144.199 25.9685 144.85 25.9685ZM153.708 28V14.7217H156.837V28H153.708ZM155.281 12.8371C154.786 12.8371 154.359 12.6729 154.002 12.3444C153.644 12.0101 153.466 11.6096 153.466 11.1428C153.466 10.6702 153.644 10.2696 154.002 9.94114C154.359 9.60688 154.786 9.43975 155.281 9.43975C155.783 9.43975 156.209 9.60688 156.561 9.94114C156.918 10.2696 157.097 10.6702 157.097 11.1428C157.097 11.6096 156.918 12.0101 156.561 12.3444C156.209 12.6729 155.783 12.8371 155.281 12.8371ZM162.698 20.2198V28H159.568V14.7217H162.559V16.978H162.715C163.021 16.2345 163.508 15.6438 164.176 15.2058C164.85 14.7678 165.683 14.5488 166.674 14.5488C167.591 14.5488 168.389 14.7447 169.069 15.1366C169.755 15.5285 170.285 16.0962 170.66 16.8397C171.04 17.5831 171.227 18.485 171.222 19.5455V28H168.092V20.0296C168.092 19.142 167.862 18.4476 167.401 17.9462C166.945 17.4448 166.314 17.1941 165.507 17.1941C164.96 17.1941 164.473 17.3151 164.046 17.5572C163.626 17.7935 163.294 18.1364 163.052 18.5859C162.816 19.0354 162.698 19.58 162.698 20.2198Z" fill="#D1D1D1"/>
</svg>
